<svg id="mini-stage" xmlns="http://www.w3.org/2000/svg" width="580" height="480" viewBox="-150 -40 580 480" role="img" aria-labelledby="title desc" style="pointer-events:none">
  <title id="title">Hamster mini-sleep-peek v1 (scripted)</title>
  <desc id="desc">Mini-mode sleep hover/peek state for clawd-on-desk / MiniCPM-Desk-Pet. It starts from the confirmed mini-sleep loop, keeps the sleeping head/body/breathing/Zzz motion, and holds the post-peek pose by default because the real window push/pull is handled by the app; add ?loop=1 for the self-contained showcase/demo rest-to-push-to-hold-to-pull cycle. Both paws stay clamped to the screen edge with the sleep-peek motion trail. svg root keeps pointer-events:none. Exposes window.__miniSleepPeek. Pure paths plus soft-lift filter, no image/gradient/fetch.</desc>
    <defs>
    <filter id="soft-lift" x="-14%" y="-14%" width="128%" height="128%" color-interpolation-filters="sRGB">
      <feMorphology in="SourceAlpha" operator="dilate" radius="1.45" result="edge-spread"/>
      <feComposite in="edge-spread" in2="SourceAlpha" operator="out" result="edge-ring"/>
      <feGaussianBlur in="edge-ring" stdDeviation="0.42" result="edge-soft"/>
      <feFlood flood-color="#7a604d" flood-opacity=".13" result="edge-color"/>
      <feComposite in="edge-color" in2="edge-soft" operator="in" result="edge-rim"/>
      <feGaussianBlur in="SourceAlpha" stdDeviation="3.0" result="soft-edge"/>
      <feFlood flood-color="#8b735e" flood-opacity=".07" result="halo-color"/>
      <feComposite in="halo-color" in2="soft-edge" operator="in" result="halo"/>
      <feOffset in="SourceAlpha" dx="0" dy="7" result="shadow-offset"/>
      <feGaussianBlur in="shadow-offset" stdDeviation="7" result="shadow-blur"/>
      <feFlood flood-color="#3a2d23" flood-opacity=".105" result="shadow-color"/>
      <feComposite in="shadow-color" in2="shadow-blur" operator="in" result="ambient-shadow"/>
      <feMerge>
        <feMergeNode in="ambient-shadow"/>
        <feMergeNode in="halo"/>
        <feMergeNode in="edge-rim"/>
        <feMergeNode in="SourceGraphic"/>
      </feMerge>
    </filter>
      <!-- v4(鹿鹿四轮):手形态完全回到 mini-sleep 定稿,clip 原 rect 不动不补偿 -->
      <clipPath id="mini-paw-clip-right" clipPathUnits="userSpaceOnUse">
        <rect x="340" y="236" width="78" height="64"/>
      </clipPath>
      <clipPath id="mini-paw-clip-left" clipPathUnits="userSpaceOnUse">
        <rect x="-44" y="236" width="78" height="64"/>
      </clipPath>
    </defs>

    <g id="mini-rotate" style="transform-origin:0 0" transform="rotate(-90 187 230)">
      <g id="hamster-flat-master-v11" style="transform-origin:0 0" filter="url(#soft-lift)" fill-rule="evenodd" clip-rule="evenodd">
        <g id="tail" data-part="tail">
          <circle id="tail-fill" cx="187" cy="356" r="22" fill="#d8a686"/>
        </g>
        <g id="feet-layer" data-layer="behind-body">
          <g id="left-foot" data-part="left-foot">
            <path id="left-foot-fill" d="M109 392 C101 389 93 391 87 396 C80 402 84 410 94 414 C105 418 118 414 125 405 C131 397 123 394 109 392 Z" fill="#d8a686"/>
          </g>
          <g id="right-foot" data-part="right-foot">
            <path id="right-foot-fill" d="M265 392 C273 389 281 391 287 396 C294 402 290 410 280 414 C269 418 256 414 249 405 C243 397 251 394 265 392 Z" fill="#d8a686"/>
          </g>
        </g>

        <!-- sleep 呼吸 wrapper(mini-sleep 定稿同款) -->
        <g id="sleep-body-breath">
        <g id="body-layer" data-layer="body">
          <g id="body-belly" data-part="body-belly">
            <path id="body-belly-fill" d="M187 200 C113 200 60 251 60 322 C60 380 101 412 187 412 C273 412 314 380 314 322 C314 251 261 200 187 200Z" fill="#fff8f0"/>
          </g>
        </g>
        </g><!-- /sleep-body-breath -->

        <!-- sleep 头耷 wrapper(mini-sleep 定稿同款) -->
        <g id="sleep-head-tilt">
        <g id="ears-layer" data-layer="ears">
          <g id="left-ear" data-part="left-ear">
            <circle id="left-ear-outer" cx="101" cy="73" r="34" fill="#d8a686"/>
            <circle id="left-ear-inner" cx="101" cy="73" r="18" fill="#f8b2aa"/>
          </g>
          <g id="right-ear" data-part="right-ear">
            <circle id="right-ear-outer" cx="286" cy="73" r="34" fill="#d8a686"/>
            <circle id="right-ear-inner" cx="286" cy="73" r="18" fill="#f8b2aa"/>
          </g>
        </g>

        <g id="head-tufts" data-part="head-tufts">
          <path id="left-tuft" d="M182 49 C184 35 187 24 192 15" fill="none" stroke="#d8a686" stroke-width="6.5" stroke-linecap="round" transform="rotate(-32 182 49)"/>
          <path id="right-tuft" d="M200 50 C203 34 208 24 214 16" fill="none" stroke="#d8a686" stroke-width="6.5" stroke-linecap="round" transform="rotate(-32 200 50)"/>
        </g>

        <g id="head-layer" data-layer="head">
          <g id="head-cap" data-part="head-cap">
            <path id="head-cap-fill" d="M64 153 C64 88 116 48 187 48 C258 48 310 88 310 153 C310 214 257 253 187 253 C117 253 64 214 64 153Z" fill="#edc8a5"/>
          </g>
          <g id="cheek-muzzle" data-part="cheek-muzzle">
            <path id="cheek-muzzle-fill" d="M65 153 C97 159 136 168 172 154 C181 150 193 147 202 154 C238 168 277 159 309 153 C331 178 336 221 303 246 C270 268 104 268 71 246 C38 221 43 178 65 153Z" fill="#fff8f0"/>
          </g>
          <g id="cheek-creases" data-part="cheek-creases" opacity=".35">
            <path id="left-cheek-crease" d="M62 238 C70 250 84 256 100 256" fill="none" stroke="#e6d7c6" stroke-width="3" stroke-linecap="round"/>
            <path id="right-cheek-crease" d="M312 238 C304 250 290 256 274 256" fill="none" stroke="#e6d7c6" stroke-width="3" stroke-linecap="round"/>
          </g>
        </g>

        <g id="face-layer" data-layer="face">
          <!-- 睡觉眉 + 闭眼 = mini-sleep 定稿(主线 sleeping 逐字 + 上移 4) -->
          <g id="brows" data-part="brows" transform="translate(0 -4)">
            <path id="left-brow" d="M 127.1 116 C 135.02 106 147.98 106 155.9 116" fill="none" stroke="#7b4a23" stroke-width="7" stroke-linecap="round"/>
            <path id="right-brow" d="M 247.9 116 C 239.98 106 227.02 106 219.1 116" fill="none" stroke="#7b4a23" stroke-width="7" stroke-linecap="round"/>
          </g>
          <g id="eyes" data-part="eyes">
            <ellipse id="left-eye" cx="138" cy="157" rx="12.5" ry="17" fill="#5a300f" opacity="0"/>
            <ellipse id="right-eye" cx="237" cy="157" rx="12.5" ry="17" fill="#5a300f" opacity="0"/>
            <path id="sleep-left-eye-arc" data-part="left-sleep-eye-arc" d="M 125.85 158.5 C 132.53 164.5 143.47 164.5 150.15 158.5" fill="none" stroke="#5a300f" stroke-width="4.6" stroke-linecap="round"/>
            <path id="sleep-right-eye-arc" data-part="right-sleep-eye-arc" d="M 224.85 158.5 C 231.53 164.5 242.47 164.5 249.15 158.5" fill="none" stroke="#5a300f" stroke-width="4.6" stroke-linecap="round"/>
          </g>
          <g id="sunglasses" data-part="sunglasses">
            <g id="left-sunglass" data-part="left-sunglass">
              <path id="left-sunglass-frame" d="M99.22 132 C114.76 125.7 144.16 126.96 166 131.58 C171.46 132.84 174.82 136.62 174.4 143.34 C171.88 170.22 152.98 187.44 129.46 187.44 C109.72 187.44 96.7 170.64 96.28 146.7 C96.28 139.56 94.18 134.52 99.22 132 Z M109.54 137.88 C123.82 133.68 145.66 134.94 162.88 138.72 C161.62 159.3 149.44 178.62 133.9 179.46 C118.78 180.3 107.86 164.76 107.44 146.7 C107.44 142.5 106.18 139.56 109.54 137.88 Z" fill="#171716" fill-rule="evenodd" stroke="#111111" stroke-width="2.52" stroke-linejoin="round"/>
              <path id="left-sunglass-lens" d="M109.54 137.88 C123.82 133.68 145.66 134.94 162.88 138.72 C161.62 159.3 149.44 178.62 133.9 179.46 C118.78 180.3 107.86 164.76 107.44 146.7 C107.44 142.5 106.18 139.56 109.54 137.88 Z" fill="#16140f" opacity=".97"/>
              <path id="left-lens-main-shine" d="M151.96 135.36 L124.24 178.62" fill="none" stroke="#ffffff" stroke-width="3.36" stroke-linecap="round" opacity=".12"/>
              <path id="left-lens-small-shine" d="M161.62 140.82 L146.08 167.28" fill="none" stroke="#ffffff" stroke-width="2.1" stroke-linecap="round" opacity=".09"/>
            </g>
            <g id="right-sunglass" data-part="right-sunglass">
              <path id="right-sunglass-frame" d="M275.62 132 C260.08 125.7 230.68 126.96 208.84 131.58 C203.38 132.84 200.02 136.62 200.44 143.34 C202.96 170.22 221.86 187.44 245.38 187.44 C265.12 187.44 278.14 170.64 278.56 146.7 C278.56 139.56 280.66 134.52 275.62 132 Z M265.3 137.88 C251.02 133.68 229.18 134.94 211.96 138.72 C213.22 159.3 225.4 178.62 240.94 179.46 C256.06 180.3 266.98 164.76 267.4 146.7 C267.4 142.5 268.66 139.56 265.3 137.88 Z" fill="#171716" fill-rule="evenodd" stroke="#111111" stroke-width="2.52" stroke-linejoin="round"/>
              <path id="right-sunglass-lens" d="M265.3 137.88 C251.02 133.68 229.18 134.94 211.96 138.72 C213.22 159.3 225.4 178.62 240.94 179.46 C256.06 180.3 266.98 164.76 267.4 146.7 C267.4 142.5 268.66 139.56 265.3 137.88 Z" fill="#16140f" opacity=".97"/>
              <path id="right-lens-main-shine" d="M255.64 135.36 L227.92 178.62" fill="none" stroke="#ffffff" stroke-width="3.36" stroke-linecap="round" opacity=".12"/>
              <path id="right-lens-small-shine" d="M265.3 140.82 L249.76 167.28" fill="none" stroke="#ffffff" stroke-width="2.1" stroke-linecap="round" opacity=".09"/>
            </g>
            <path id="sunglasses-bridge" d="M173.98 144.18 C182.38 138.3 192.46 138.3 200.86 144.18" fill="none" stroke="#111111" stroke-width="4.2" stroke-linecap="round"/>
          </g>
          <g id="blushes" data-part="blushes">
            <ellipse id="left-blush" cx="92" cy="185" rx="17" ry="11" fill="#f8aaa2" opacity=".9"/>
            <ellipse id="right-blush" cx="281" cy="185" rx="17" ry="11" fill="#f8aaa2" opacity=".9"/>
          </g>
          <g id="nose-mouth" data-part="nose-mouth">
            <ellipse id="nose-fill" cx="187" cy="170" rx="10" ry="7.5" fill="#7b4a23"/>
            <path id="mouth-left" d="M187 177 C187 190 180 198 171 198 C166 198 163 195 163 192" fill="none" stroke="#7b4a23" stroke-width="5" stroke-linecap="round"/>
            <path id="mouth-right" d="M187 177 C187 190 194 198 203 198 C208 198 211 195 211 192" fill="none" stroke="#7b4a23" stroke-width="5" stroke-linecap="round"/>
          </g>
        </g>
        </g><!-- /sleep-head-tilt -->

        <!-- peek 手追边 wrapper:屏幕系 x+ = 母版系 y+,纯平移(定稿串不碰、不翻爪);
             clip 窗口余量(局部 78 宽)实测足够覆盖滞后期暴露的手臂,clip 不动 -->
        <g id="peek-hands-ext">
        <g id="hands-layer" data-layer="hands-above-face">
          <!-- v4(鹿鹿四轮):摆位=mini-sleep 定稿原串逐字,静止形态零改动;轨迹线另起屏幕系图层 -->
          <g id="left-hand" data-part="left-hand" clip-path="url(#mini-paw-clip-left)"
             transform="translate(122.5 7) rotate(90 -9.5 268) translate(-9.5 268) scale(1.25) translate(9.5 -268)">
            <path id="left-hand-base" d="M118 249.5 L-9.5 249.5 C-19.7 249.5 -28 257.8 -28 268 C-28 278.2 -19.7 286.5 -9.5 286.5 L118 286.5 C123 279.1 123 256.9 118 249.5 Z" fill="#fff8f0"/>
            <path id="left-paw-tip" d="M8.5 249.5 L-9.5 249.5 C-19.7 249.5 -28 257.8 -28 268 C-28 278.2 -19.7 286.5 -9.5 286.5 L8.5 286.5 C16 278.2 16 257.8 8.5 249.5 Z" fill="#d8a686"/>
          </g>
          <g id="right-hand" data-part="right-hand" clip-path="url(#mini-paw-clip-right)"
             transform="translate(-122.5 7) rotate(270 383.5 268) translate(383.5 268) scale(1.25) translate(-383.5 -268)">
            <path id="right-hand-base" d="M256 249.5 L383.5 249.5 C393.7 249.5 402 257.8 402 268 C402 278.2 393.7 286.5 383.5 286.5 L256 286.5 C251 279.1 251 256.9 256 249.5 Z" fill="#fff8f0"/>
            <path id="right-paw-tip" d="M365.5 249.5 L383.5 249.5 C393.7 249.5 402 257.8 402 268 C402 278.2 393.7 286.5 383.5 286.5 L365.5 286.5 C358 278.2 358 257.8 365.5 249.5 Z" fill="#d8a686"/>
          </g>
        </g>
        </g><!-- /peek-hands-ext -->

        <!-- 领带微摆 wrapper(mini-sleep 定稿同款) -->
        <g id="sleep-tie-sway">
        <g id="tie" data-part="tie" transform="translate(153 260)">
          <!-- v3 领带呼吸(鹿鹿三轮定):领结钉死,只有下摆系(blade wrapper)绕领结点甩;定稿串不碰 -->
          <g id="tie-blade-sway">
            <path id="tie-shadow" d="M24 27 L44 27 L54 68 C55 72.5 53 76 49 80 L38 93 C35.5 96 31 96 28.5 93 L17.5 80 C14 76 13 72.5 14.5 68 Z" fill="#000000" opacity=".08" transform="translate(7 6.5) rotate(59.5 33.5 14) translate(2 2)"/>
            <path id="tie-blade" d="M24 24 L44 24 L54 66 C55 70.5 53 74 49 78 L38 91 C35.5 94 31 94 28.5 91 L17.5 78 C14 74 13 70.5 14.5 66 Z" fill="#21201e" stroke="#151515" stroke-width="2" stroke-linejoin="round" transform="translate(7 6.5) rotate(59.5 33.5 14)"/>
            <path id="tie-center-fold" d="M34 28 L34 84" fill="none" stroke="#ffffff" stroke-width="2" stroke-linecap="round" opacity=".07" transform="translate(7 6.5) rotate(59.5 33.5 14)"/>
            <path id="tie-left-fold" d="M27 28 L21 64" fill="none" stroke="#000000" stroke-width="2" stroke-linecap="round" opacity=".18" transform="translate(7 6.5) rotate(59.5 33.5 14)"/>
          </g>
          <path id="tie-knot" d="M23 3 L44 3 L51 14 L44 25 L23 25 L16 14 Z" fill="#2d2c29" stroke="#151515" stroke-width="2" stroke-linejoin="round" transform="translate(0 5) rotate(24 33.5 14)"/>
          <path id="tie-knot-highlight" d="M26 8 L40 8" fill="none" stroke="#ffffff" stroke-width="2" stroke-linecap="round" opacity=".12" transform="translate(0 5) rotate(24 33.5 14)"/>
        </g>
        </g><!-- /sleep-tie-sway -->
      </g>
    </g>

    <!-- Zzz 层(mini-sleep 定稿同款,屏幕坐标) -->
    <g id="sleep-zzz-layer" fill="none" stroke="#8a5a3f" stroke-linecap="round" stroke-linejoin="round" pointer-events="none">
      <path id="sleep-zzz-small" d="M 0 0 L 16 2 L -2 18 L 14 20" stroke-width="4.6" opacity="0"/>
      <path id="sleep-zzz-mid" d="M 0 0 L 25 3 L -3 27 L 21 30" stroke-width="6" opacity="0"/>
      <path id="sleep-zzz-large" d="M 0 0 L 29 4 L -3 33 L 25 38" stroke-width="7" opacity="0"/>
    </g>

    <!-- v4 手掌运动轨迹层(鹿鹿四轮):手往下推时才出现的细拖尾,手掌同色;
         手不动=无线,推出中随爪增长,到位后渐隐;屏幕坐标,贴爪头上下缘 -->
    <g id="paw-trail-layer" fill="none" stroke="#d8a686" stroke-linecap="round" pointer-events="none">
      <line id="trail-up-top" x1="0" y1="135" x2="0" y2="135" opacity="0"/>
      <line id="trail-up-bottom" x1="0" y1="177" x2="0" y2="177" opacity="0"/>
      <line id="trail-down-top" x1="0" y1="283" x2="0" y2="283" opacity="0"/>
      <line id="trail-down-bottom" x1="0" y1="325" x2="0" y2="325" opacity="0"/>
    </g>

  <script><![CDATA[
(() => {
  "use strict";
  const svg = document.getElementById("mini-stage");

  // ── mini-sleep 定稿参数(2026-06-12 鹿鹿二轮定稿,常量烘焙,不开放调参)──
  const SLEEP = {
    cycle: 5.6, tilt: 7, tiltBreath: 1, breathAmp: 1,
    zzzX: 52, zzzY: 86, zzzScale: 1, zzzColor: "#8a5a3f",
    mouthInset: 16, mouthWobble: 2, tuftFloat: 1.5
  };
  const TILT_PIVOT = { x: 187, y: 252 };
  // 领带甩动锚 = 领结中心 tie 局部 (33.5,19)(blade wrapper 在 tie 组内,直接用局部坐标)
  const ZZZ_PARTS = [
    { id: "sleep-zzz-small", relX: 0,   relY: 0,   delay: 0,    dx: -5, dy: -10, scale0: 0.62 },
    { id: "sleep-zzz-mid",   relX: -28, relY: -38, delay: 0.23, dx: -7, dy: -13, scale0: 0.68 },
    { id: "sleep-zzz-large", relX: -52, relY: -85, delay: 0.46, dx: -9, dy: -16, scale0: 0.72 }
  ];

  // ── peek 可调参数 ──
  const state = {
    ext: 51.8,        // M 档:25px × 580/280;S 72.5 / L 40.3
    speed: 1,         // 慢放系数(<1 = 慢动作看细节)
    handDelay: 0,     // ms,钉边=与窗口完全同步(鹿鹿三轮:手一直在边缘)
    handDur: 200,     // ms,= host 窗口 200,同曲线同步,爪全程骑边
    handEase: 0,      // 0=easeOutQuad(host 同款) 1=linear
    trailWidth: 1.8,  // 轨迹线宽(鹿鹿四轮:偏细)
    trailOpacity: 0.75,
    trailFade: 0.45,  // s,推到位后轨迹渐隐时长(手不动=不展示)
    tieSwayAmp: 2.5   // 领带下摆甩幅(°,blade wrapper 绕领结点;领结钉死)
  };
  const EASES = [
    { name: "easeOutQuad(host)", fn: (t) => t * (2 - t) },
    { name: "linear", fn: (t) => t }
  ];
  // 推出模拟时间线:贴边 1.2s → 推出 0.2s(host easeOutQuad) → 保持 2s → 缩回 0.2s
  const T_REST = 1.2, T_PUSH = 0.2, T_HOLD = 2.0, T_PULL = 0.2;
  const T_TOTAL = T_REST + T_PUSH + T_HOLD + T_PULL;
  const LOOP_MODE = /[?&]loop=1\b/.test(location.search);
  const HOST_HOLD_PHASE = T_REST + T_PUSH + T_HOLD / 2;
  const EDGE_BASE = 235;
  const hostEase = EASES[0].fn; // 窗口推出/缩回恒用 host 曲线

  // ── 工具 ──
  function clamp(v, a, b) { return Math.max(a, Math.min(b, v)); }
  function lerp(a, b, t) { return a + (b - a) * t; }
  function fract(v) { return v - Math.floor(v); }
  function easeOutCubic(v) { const t = clamp(v, 0, 1); return 1 - Math.pow(1 - t, 3); }
  function easeBreath(linear) { return (1 - Math.cos(linear * Math.PI * 2)) / 2; }
  function fmt(v) { return String(parseFloat(Number(v).toFixed(2))); }
  function fmtFine(v) { return String(parseFloat(Number(v).toFixed(4))); }
  function setT(id, transform) {
    const node = svg.querySelector(`#${id}`);
    if (node) {
      if (transform) node.setAttribute("transform", transform);
      else node.removeAttribute("transform");
    }
  }
  function applyMouthInset(inset) {
    ["mouth-left", "mouth-right"].forEach((id) => {
      const node = svg.querySelector(`#${id}`);
      if (!node || !node.getTotalLength) return;
      const length = node.getTotalLength();
      const visibleLength = Math.max(.1, length - inset);
      node.setAttribute("stroke-dasharray", `${fmt(visibleLength)} ${fmt(length + 24)}`);
      node.setAttribute("stroke-dashoffset", "0");
    });
  }

  // ── peek 时间线:窗口边缘进度 + 手进度(带延迟,各自独立缓动)──
  // 返回 { edgeP, handP } 都是 0..1(0=贴边,1=推出 ext)
  function peekAt(tSec) {
    const freezeControl = document.getElementById("freeze-hold");
    const freeze = !LOOP_MODE || (freezeControl ? freezeControl.checked : false);
    const p = freeze ? HOST_HOLD_PHASE : (tSec % T_TOTAL);
    const handEase = EASES[state.handEase].fn;
    const dly = state.handDelay / 1000, dur = Math.max(.01, state.handDur / 1000);
    let edgeP, handP, pushSince = -1;
    if (p < T_REST) {
      edgeP = 0; handP = 0;
    } else if (p < T_REST + T_PUSH + T_HOLD) {
      const since = p - T_REST;             // 自推出开始的秒数(跨 push+hold 连续计)
      edgeP = hostEase(clamp(since / T_PUSH, 0, 1));
      handP = handEase(clamp((since - dly) / dur, 0, 1));
      pushSince = since;
    } else {
      const since = p - T_REST - T_PUSH - T_HOLD;  // 自缩回开始
      edgeP = 1 - hostEase(clamp(since / T_PULL, 0, 1));
      handP = 1 - handEase(clamp((since - dly) / dur, 0, 1));
    }
    return { edgeP, handP, phase: p, pushSince };
  }

  // ── 每帧 ──
  const zzzLayer = document.getElementById("sleep-zzz-layer");
  let t0 = performance.now();
  function frame(now) {
    const tReal = (now - t0) / 1000;
    const t = tReal * state.speed;

    // ① mini-sleep 定稿循环(逐字驱动,参数=定稿常量)
    const phase = fract(t / SLEEP.cycle);
    const bt = easeBreath(phase);
    const a = SLEEP.breathAmp;
    setT("sleep-body-breath",
      `translate(187 322) translate(0 ${fmtFine(1.6 * a * bt)}) scale(${fmtFine(1 + 0.024 * a * bt)} ${fmtFine(1 - 0.018 * a * bt)}) translate(-187 -322)`);
    const tiltDeg = -(SLEEP.tilt - SLEEP.tiltBreath * bt);
    setT("sleep-head-tilt", `rotate(${fmt(tiltDeg)} ${TILT_PIVOT.x} ${TILT_PIVOT.y})`);
    const fl = Math.sin(2 * Math.PI * phase) * SLEEP.tuftFloat;
    const fr = Math.sin(2 * Math.PI * phase + .9) * SLEEP.tuftFloat;
    setT("left-tuft", `rotate(${fmt(-32 + fl)} 182 49)`);
    setT("right-tuft", `rotate(${fmt(-32 + fr)} 200 50)`);
    // 领带呼吸(鹿鹿三轮定):领结钉死,只有下摆绕领结点甩(滞后 lag=phase+0.08 主线先例);
    // wrapper 在 tie 组内(局部坐标,锚=领结中心 (33.5,19)),外层 sleep-tie-sway 不再驱动,定稿串不碰
    const lag = easeBreath(fract(phase + 0.08));
    setT("sleep-tie-sway", "");
    setT("tie-blade-sway", `rotate(${fmt(state.tieSwayAmp * (lag * 2 - 1))} 33.5 19)`);
    applyMouthInset(SLEEP.mouthInset + SLEEP.mouthWobble * bt);
    for (const part of ZZZ_PARTS) {
      const node = document.getElementById(part.id);
      if (!node) continue;
      const pz = fract(phase - part.delay);
      const appear = easeOutCubic(pz / 0.24);
      const fade = clamp((pz - 0.64) / 0.24, 0, 1);
      const rise = easeOutCubic(pz / 0.9);
      const s = lerp(part.scale0, 1, appear) * SLEEP.zzzScale;
      const x = SLEEP.zzzX + part.relX * SLEEP.zzzScale + part.dx * rise;
      const y = SLEEP.zzzY + part.relY * SLEEP.zzzScale + part.dy * rise;
      node.setAttribute("transform", `translate(${fmt(x)} ${fmt(y)}) scale(${fmt(s)})`);
      node.setAttribute("opacity", fmt(0.9 * appear * (1 - fade)));
    }

    // ② peek:复用 host 推出曲线驱动手部追赶；生产资产不绘制调试边界
    const pk = peekAt(t);
    const { edgeP, handP } = pk;
    const edgeX = EDGE_BASE + state.ext * edgeP;
    const mask = document.getElementById("edge-mask");
    const line = document.getElementById("edge-line");
    const text = document.getElementById("edge-text");
    if (mask) { mask.setAttribute("x", fmt(edgeX)); mask.setAttribute("width", fmt(430 - edgeX + 150)); }
    if (line) { line.setAttribute("x1", fmt(edgeX)); line.setAttribute("x2", fmt(edgeX)); }
    if (text) text.setAttribute("x", fmt(edgeX + 4));
    // 手钉边(鹿鹿三轮:手一直在显示器边缘):随边平移(屏幕 x+ = 母版 y+),爪全程骑边;
    // 形态=mini-sleep 定稿原样(鹿鹿四轮),clip 不动不补偿。纯平移、不转,定稿串不碰。
    const off = state.ext * handP;
    setT("peek-hands-ext", off > .01 ? `translate(0 ${fmt(off)})` : "");

    // ③ 手掌运动轨迹(鹿鹿四轮):手往下推时才出现的细拖尾,手掌同色 #d8a686;
    // 几何=出发位爪头左缘(209)拖到当前爪头左缘(209+off);到位后渐隐;rest/pull 不展示
    const dlyS = state.handDelay / 1000, durS = Math.max(.01, state.handDur / 1000);
    let trailAlpha = 0;
    if (pk.pushSince >= 0 && off > 0.5) {
      const settled = pk.pushSince - dlyS - durS;   // 手到位后经过的秒数
      trailAlpha = settled <= 0 ? 1 : Math.max(0, 1 - settled / Math.max(.01, state.trailFade));
    }
    const trailA = trailAlpha * state.trailOpacity;
    ["trail-up-top", "trail-up-bottom", "trail-down-top", "trail-down-bottom"].forEach((id) => {
      const n = document.getElementById(id);
      if (!n) return;
      n.setAttribute("x1", "209");
      n.setAttribute("x2", fmt(209 + off));
      n.setAttribute("stroke-width", fmt(state.trailWidth));
      n.setAttribute("opacity", fmt(trailA));
    });

    refreshJson();
    requestAnimationFrame(frame);
  }


  function refreshJson() {} // 面板已剥离(导出无 tuner)

  requestAnimationFrame(frame);
  window.__miniSleepPeek = { state };
})();
  ]]></script>
</svg>
